<svg width="302" height="85" viewBox="0 0 302 85" fill="none" xmlns="http://www.w3.org/2000/svg">
<path d="M0 62.8165V21.6105C12.5204 14.3443 37.7237 0 37.7237 0L54.0501 9.45103L41.0408 16.9882L37.0993 14.6421L13.1122 27.9843V31.9195L19.3811 35.5247L60.0664 12.8239L76.8307 22.49L76.8838 62.8208L38.3969 84.8603C38.3969 84.8603 12.4044 70.1118 0 62.8165ZM13.1122 55.4901L38.3449 69.7516L63.5092 55.3847L63.4669 45.3789L37.5796 59.7328L27.7562 54.2117L63.5298 33.885V29.9863L58.5303 26.9532L18.7491 49.1647L13.1122 45.9369V55.4901Z" fill="url(#paint0_linear_436_45572)"/>
<path d="M182.17 28.6438C182.119 28.7577 182.06 28.8685 182.019 28.9846C181.643 30.0458 181.267 31.1081 180.897 32.1715C180.466 33.4133 180.047 34.6584 179.614 35.8992C179.047 37.5206 178.467 39.1366 177.901 40.7581C177.45 42.0483 177.014 43.3439 176.563 44.6352C176.042 46.1298 175.507 47.62 174.986 49.1156C174.509 50.4833 174.046 51.8563 173.571 53.225C173.237 54.1873 172.902 55.1496 172.553 56.1076C172.186 57.1162 171.574 57.9645 170.722 58.6193C170.097 59.0999 169.376 59.4182 168.604 59.5999C167.035 59.9698 165.582 59.6246 164.271 58.7612C163.277 58.1064 162.612 57.1549 162.211 56.0367C161.803 54.9002 161.406 53.7594 161.007 52.6197C160.031 49.8338 159.057 47.0469 158.08 44.2621C157.324 42.1107 156.566 39.9592 155.803 37.8099C155.3 36.3938 154.779 34.9842 154.279 33.5671C153.745 32.05 153.225 30.5275 152.697 29.0082C152.692 28.9943 152.658 28.9889 152.591 28.9588C152.558 29.0534 152.487 29.1491 152.5 29.2319C152.632 30.0867 152.569 30.9458 152.569 31.8027C152.575 40.6871 152.573 49.5715 152.572 58.4559C152.572 58.7505 152.566 59.0462 152.536 59.3386C152.514 59.544 152.367 59.6784 152.163 59.7117C151.978 59.7418 151.787 59.7483 151.598 59.7483C149.025 59.7504 146.452 59.7515 143.879 59.7483C143.084 59.7483 143.055 59.7128 143.045 58.9376C143.044 58.83 143.045 58.7225 143.045 58.615C143.045 45.919 143.046 33.223 143.041 20.5271C143.041 19.9873 143.057 19.4486 143.193 18.9304C143.74 16.8456 145.083 15.5424 147.198 15.0435C147.509 14.9704 147.844 14.9812 148.168 14.9801C149.956 14.9747 151.746 15.0338 153.531 14.9618C155.262 14.8908 157.422 16.1628 158.191 18.0369C158.334 18.3842 158.48 18.7315 158.6 19.0874C159.061 20.4593 159.501 21.8388 159.968 23.2075C160.436 24.5784 160.935 25.9396 161.41 27.3084C161.744 28.2707 162.054 29.2405 162.383 30.2049C162.843 31.5511 163.31 32.894 163.776 34.238C164.004 34.8961 164.241 35.5509 164.467 36.2099C165.091 38.0367 165.709 39.8667 166.335 41.6935C166.735 42.8601 167.147 44.0234 167.555 45.1879C167.572 45.2363 167.608 45.2782 167.637 45.3255C167.805 45.3105 167.835 45.1771 167.876 45.0524C168.473 43.216 169.076 41.3817 169.669 39.5442C170.287 37.6303 170.887 35.71 171.508 33.7972C171.989 32.3188 172.497 30.849 172.978 29.3706C173.767 26.9482 174.542 24.5204 175.331 22.0979C175.746 20.8227 176.17 19.5508 176.602 18.282C177.19 16.5606 178.448 15.5521 180.166 15.064C180.447 14.9844 180.756 14.9844 181.052 14.9833C183.029 14.9769 185.007 14.9661 186.984 14.9833C188.386 14.9962 189.518 15.594 190.459 16.6165C191.388 17.6262 191.762 18.8261 191.771 20.1529C191.787 22.542 191.775 24.9311 191.775 27.3191C191.775 37.7335 191.775 48.1479 191.775 58.5623C191.775 58.83 191.775 59.0988 191.759 59.3666C191.745 59.5773 191.61 59.7096 191.395 59.7311C191.207 59.7493 191.016 59.7504 190.827 59.7504C188.307 59.7515 185.789 59.7526 183.27 59.7504C182.344 59.7504 182.329 59.7332 182.329 58.7935C182.329 49.0231 182.329 39.2528 182.329 29.4824V28.6846C182.276 28.6717 182.223 28.6588 182.17 28.6459V28.6438Z" fill="white"/>
<path d="M290.908 44.4164C290.937 43.2906 290.92 42.2208 290.923 41.151C290.926 40.05 290.923 38.9501 290.923 37.849V34.6277C290.923 33.5536 291.014 15.0386 291.014 15.0386L300.363 15.0623C300.363 15.0623 300.363 40.6489 300.363 52.9696C300.363 53.5319 300.315 54.0867 300.225 54.648C299.86 56.9457 297.552 59.323 294.841 59.6595C293.439 59.8337 292.149 59.6165 290.908 59.0198C290.523 58.8348 290.161 58.5822 289.835 58.3069C289.193 57.7682 288.65 57.1478 288.201 56.4275C286.609 53.8728 284.974 51.3439 283.37 48.7967C281.851 46.3861 280.358 43.9594 278.843 41.5467C277.341 39.1565 275.825 36.7771 274.317 34.3912C273.542 33.1644 272.773 31.9322 271.999 30.7043C271.902 30.5484 271.601 30.1259 271.601 30.1259L271.479 59.6047L262.176 59.6294C262.176 59.6294 262.134 34.1041 262.134 21.8909C262.134 21.2748 262.148 20.6641 262.279 20.0523C262.48 19.1158 262.86 18.2707 263.432 17.5084C264.302 16.3493 265.454 15.5945 266.845 15.1773C267.237 15.0591 267.632 14.9838 268.042 14.9816C268.88 14.9773 269.707 14.9709 270.529 15.2386C271.806 15.6536 272.874 16.3407 273.673 17.4041C274.14 18.0266 274.553 18.6911 274.971 19.348C276.281 21.4135 277.584 23.4854 278.887 25.5552C279.417 26.3971 279.938 27.2454 280.468 28.0862C281.198 29.2453 281.937 30.4011 282.668 31.5602C284.217 34.0159 285.764 36.4739 287.312 38.9307C288.43 40.7048 289.545 42.4789 290.667 44.2508C290.703 44.3078 290.789 44.3347 290.912 44.4164H290.908Z" fill="white"/>
<path d="M239.734 59.5757C239.538 59.6499 229.392 59.6187 229.392 59.6187L226.005 49.7268L209.268 49.729L205.686 59.5897L195.611 59.6198C195.611 59.6198 199.503 49.2161 200.266 47.2399C200.672 46.1884 201.067 45.1336 201.467 44.0799C202.03 42.6004 202.591 41.122 203.154 39.6436C203.812 37.9147 204.469 36.1847 205.131 34.4557C205.592 33.2537 206.059 32.0548 206.523 30.8538C207.054 29.4776 207.588 28.1024 208.115 26.725C208.625 25.3972 209.13 24.0682 209.636 22.7403C209.866 22.1393 210.095 21.5372 210.325 20.9362C210.659 20.0588 210.972 19.1728 211.332 18.3073C211.868 17.0138 212.793 16.0644 214.066 15.4602C214.756 15.1322 215.476 14.9473 216.259 14.9731C217.286 15.0064 218.316 14.9795 219.346 14.9817C221.068 14.986 222.395 15.7623 223.459 17.0547C223.912 17.6052 224.173 18.2492 224.42 18.903C225.217 21.0103 226.019 23.1156 226.813 25.2251C227.294 26.5057 227.755 27.7938 228.237 29.0744C228.929 30.9065 229.632 32.7333 230.329 34.5633C230.549 35.1396 230.763 35.7191 230.982 36.2965C231.751 38.3286 232.524 40.3586 233.292 42.3918C234.011 44.2981 234.73 46.2056 235.443 48.1151C236.092 49.8483 236.725 51.588 237.377 53.3202C238.048 55.1018 238.737 56.8769 239.415 58.6553C239.519 58.9295 239.608 59.209 239.736 59.5789L239.734 59.5757ZM211.955 42.2617C212.118 42.2929 212.266 42.3456 212.416 42.3456C215.854 42.3499 219.292 42.3488 222.73 42.3477C222.837 42.3477 222.946 42.3327 223.05 42.308C223.095 42.2972 223.131 42.2445 223.189 42.1972C223.184 42.1327 223.196 42.051 223.172 41.98C221.392 36.8395 219.61 31.6989 217.826 26.5605C217.801 26.4907 217.738 26.4337 217.694 26.3724C217.657 26.3896 217.616 26.395 217.61 26.4122C215.734 31.6022 213.86 36.7922 211.988 41.9832C211.963 42.0542 211.969 42.1359 211.955 42.2617Z" fill="white"/>
<path d="M243.593 59.6474L243.656 15.0352L253.538 15.0943L253.581 59.555L243.593 59.6474Z" fill="white"/>
<path d="M111.283 43.7028C111.127 43.8383 110.999 43.9297 110.894 44.0415C110.267 44.7092 109.653 45.3866 109.023 46.05C108.341 46.7682 108.413 46.4908 108.413 47.6015C108.409 51.4131 108.413 55.2247 108.41 59.0362C108.41 59.2782 108.41 59.519 108.4 59.7609C108.39 59.9878 108.278 60.1674 108.112 60.319C107.968 60.4512 107.808 60.5426 107.607 60.548C107.39 60.5534 107.174 60.5534 106.957 60.5534C102.758 60.5534 98.56 60.5534 94.3616 60.5534C94.1448 60.5534 93.9269 60.5641 93.7123 60.5437C93.1768 60.4931 92.8874 60.2082 92.8169 59.6706C92.7963 59.5115 92.8028 59.3491 92.8028 59.1878C92.8017 58.5169 92.8028 57.846 92.8028 57.1751C92.8028 43.405 92.8028 29.6349 92.8028 15.8647C92.8028 15.5959 92.792 15.3271 92.8115 15.0594C92.8473 14.5508 93.1811 14.2358 93.7025 14.2014C93.8641 14.1907 94.0277 14.1971 94.1904 14.1971C98.47 14.1971 102.75 14.1971 107.029 14.1971C107.111 14.1971 107.192 14.2025 107.273 14.1971C108.144 14.139 108.474 14.596 108.414 15.3669C108.401 15.5271 108.412 15.6884 108.412 15.8497C108.412 19.5538 108.409 23.2578 108.415 26.963C108.415 27.2468 108.345 27.5457 108.505 27.8425C108.597 27.8081 108.692 27.8027 108.732 27.7543C109.649 26.6275 110.56 25.4975 111.472 24.3664C112.687 22.8589 113.903 21.3515 115.117 19.8419C116.01 18.7312 116.9 17.6173 117.79 16.5045C118.261 15.9164 118.734 15.3304 119.193 14.7336C119.463 14.3831 119.847 14.2745 120.25 14.2079C120.434 14.1777 120.628 14.1982 120.818 14.1982C126.101 14.1982 131.382 14.1982 136.664 14.1982C136.854 14.1982 137.044 14.1982 137.233 14.2036C137.555 14.2122 137.836 14.3251 137.949 14.6358C138.062 14.9465 138.049 15.2712 137.821 15.5497C137.787 15.5916 137.749 15.6303 137.712 15.6691C136.957 16.4733 136.198 17.2743 135.447 18.0829C134.385 19.2269 133.33 20.3763 132.27 21.5225C132.123 21.6805 131.963 21.8267 131.814 21.9826C130.701 23.1546 129.586 24.3234 128.48 25.5018C127.246 26.8157 126.022 28.1392 124.794 29.4585C124.133 30.1671 123.466 30.8703 122.812 31.5853C122.522 31.9014 122.258 32.239 121.949 32.6067C122.038 32.7562 122.122 32.9185 122.225 33.0669C123.041 34.2346 123.867 35.3958 124.68 36.5667C125.385 37.5817 126.067 38.6128 126.773 39.6267C127.724 40.9954 128.693 42.3523 129.647 43.7189C130.263 44.6006 130.864 45.493 131.478 46.3757C132.077 47.2359 132.69 48.0864 133.289 48.9466C134.746 51.0453 136.196 53.1484 137.654 55.2462C138.467 56.416 139.291 57.5783 140.108 58.7449C140.262 58.9653 140.418 59.1857 140.553 59.4179C140.798 59.8394 140.635 60.2878 140.173 60.4587C140.024 60.5136 139.859 60.5351 139.699 60.5512C139.538 60.5673 139.374 60.5566 139.213 60.5566C133.903 60.5566 128.595 60.548 123.285 60.563C122.012 60.5673 121.984 60.3448 121.463 59.5405C120.601 58.2094 119.769 56.86 118.913 55.5257C117.971 54.0548 117.012 52.5947 116.069 51.1238C114.647 48.9057 113.232 46.6833 111.811 44.464C111.654 44.2189 111.479 43.9845 111.286 43.7049L111.283 43.7028ZM137.928 58.7707C137.9 58.6427 137.905 58.5535 137.864 58.4954C137.469 57.9191 137.066 57.3482 136.664 56.7762C135.968 55.787 135.267 54.801 134.575 53.8086C133.808 52.7065 133.051 51.5969 132.283 50.4948C131.484 49.3487 130.673 48.21 129.876 47.0617C129.156 46.0242 128.458 44.9715 127.737 43.935C126.633 42.3459 125.513 40.7675 124.406 39.1805C123.115 37.329 121.831 35.471 120.542 33.6174C120.404 33.4196 120.246 33.2346 120.112 33.0336C119.876 32.6788 119.902 32.325 120.153 31.9852C120.216 31.8992 120.287 31.8175 120.36 31.7379C120.793 31.2595 121.224 30.7789 121.664 30.3069C123.078 28.7919 124.496 27.2823 125.913 25.7695C126.612 25.0233 127.31 24.276 128.009 23.5288C129.426 22.016 130.842 20.5032 132.26 18.9925C133.089 18.1087 133.923 17.2302 134.751 16.3454C134.835 16.255 134.894 16.1421 135.014 15.968C134.661 15.9551 134.395 15.9379 134.129 15.9368C129.85 15.9346 125.573 15.9357 121.294 15.9357C121.158 15.9357 121.022 15.9454 120.887 15.9346C120.531 15.9056 120.295 16.0475 120.07 16.3357C118.848 17.9055 117.608 19.4602 116.361 21.0107C114.742 23.0213 113.107 25.019 111.487 27.0286C110.406 28.3683 109.338 29.7166 108.265 31.0616C108.198 31.1455 108.146 31.2455 108.065 31.3122C107.85 31.4874 107.614 31.6057 107.319 31.5251C106.987 31.4337 106.83 31.1917 106.783 30.8842C106.748 30.6477 106.758 30.4025 106.758 30.1617C106.757 25.8147 106.758 21.4676 106.758 17.1206C106.758 16.9055 106.767 16.6905 106.754 16.4765C106.744 16.3228 106.705 16.1701 106.672 15.9755C106.403 15.9615 106.165 15.9389 105.927 15.9379C104.925 15.9336 103.924 15.9357 102.921 15.9357C100.457 15.9357 97.9931 15.9336 95.5291 15.9379C95.2397 15.9379 94.9383 15.8873 94.6413 16.0314C94.5351 16.3841 94.5773 16.7335 94.5773 17.0765C94.5752 30.6004 94.5752 44.1243 94.5752 57.6482C94.5752 57.8632 94.5665 58.0782 94.5795 58.2922C94.5893 58.446 94.6283 58.5976 94.6608 58.7879C94.934 58.8029 95.1714 58.8255 95.4099 58.8266C96.5741 58.8309 97.7383 58.8287 98.9026 58.8287C101.231 58.8287 103.559 58.8309 105.889 58.8255C106.151 58.8255 106.43 58.8943 106.691 58.7072C106.802 58.4309 106.755 58.1331 106.755 57.8438C106.758 54.2215 106.768 50.5991 106.746 46.9768C106.743 46.3682 106.919 45.879 107.337 45.4575C107.375 45.4188 107.415 45.3833 107.451 45.3436C108.374 44.3286 109.294 43.3114 110.221 42.2997C110.457 42.0416 110.7 41.7868 110.965 41.5588C111.249 41.3158 111.651 41.3427 111.926 41.5975C112.043 41.7061 112.15 41.8309 112.241 41.9631C112.47 42.2954 112.691 42.633 112.908 42.9727C114.134 44.8995 115.356 46.8295 116.583 48.7552C117.161 49.6616 117.754 50.5572 118.331 51.4625C119.748 53.6828 121.167 55.901 122.573 58.1288C123.09 58.9481 123.162 58.8277 123.877 58.8277C127.343 58.8298 130.809 58.8287 134.275 58.8287C135.277 58.8287 136.278 58.832 137.281 58.8266C137.489 58.8255 137.696 58.7911 137.927 58.7707H137.928Z" fill="white"/>
<path d="M300.293 65.333C300.369 65.8362 300.39 66.2835 300.277 66.7716C300.118 66.8006 299.966 66.8436 299.812 66.8544C299.597 66.8684 299.379 66.8587 299.163 66.8587C230.808 66.8587 162.453 66.8587 94.0978 66.8587C93.8267 66.8587 93.5557 66.8651 93.2858 66.8512C92.9639 66.835 92.8305 66.7146 92.8132 66.4168C92.7926 66.0716 92.7893 65.7244 92.836 65.3459C93.0137 65.3061 93.1633 65.2556 93.3162 65.2427C93.5319 65.2255 93.7487 65.2373 93.9655 65.2373C162.374 65.2373 230.785 65.2373 299.193 65.2394C299.539 65.2394 299.894 65.1814 300.294 65.333H300.293Z" fill="white"/>
<path d="M223.046 75.7115C222.955 76.2588 222.872 76.6685 222.823 77.0813C222.65 78.5157 222.492 79.9521 222.325 81.3875C222.293 81.6681 222.184 81.7907 221.925 81.8036C221.497 81.8241 221.066 81.8574 220.614 81.7649C220.47 81.4402 220.545 81.1241 220.592 80.8134C220.733 79.8607 220.881 78.9092 221.024 77.9565C221.218 76.6609 221.412 75.3642 221.602 74.0675C221.644 73.7762 221.663 73.4816 221.705 73.1891C221.736 72.9784 221.869 72.8472 222.087 72.8397C222.519 72.8257 222.953 72.8257 223.385 72.8364C223.627 72.8429 223.78 72.9988 223.871 73.2074C223.913 73.3042 223.924 73.4149 223.956 73.517C224.403 74.9782 224.851 76.4394 225.302 77.9006C225.349 78.0522 225.416 78.1974 225.507 78.4307C225.602 78.2168 225.679 78.0802 225.725 77.934C226.176 76.5018 226.622 75.0686 227.07 73.6364C227.078 73.6106 227.086 73.5848 227.094 73.5601C227.316 72.8311 227.319 72.8268 228.11 72.8225C228.381 72.8214 228.65 72.8246 228.921 72.8364C229.099 72.844 229.236 72.9375 229.287 73.1063C229.356 73.3364 229.439 73.5719 229.454 73.8095C229.52 74.8815 229.744 75.9298 229.914 76.9867C230.016 77.62 230.061 78.263 230.145 78.8995C230.211 79.4038 230.305 79.9037 230.376 80.4069C230.436 80.8273 230.482 81.251 230.532 81.6552C230.243 81.9004 229.933 81.8111 229.646 81.8165C228.825 81.8305 228.7 81.881 228.648 80.8929C228.611 80.2005 228.48 79.5124 228.391 78.8221C228.377 78.7156 228.364 78.6092 228.355 78.5028C228.281 77.7039 228.21 76.9039 228.134 76.1051C228.13 76.0577 228.09 76.0137 228.066 75.9685C227.917 75.9309 227.885 76.0438 227.853 76.1405C227.649 76.7502 227.441 77.3598 227.25 77.9727C226.954 78.9199 226.673 79.8715 226.381 80.8187C226.286 81.1241 226.172 81.4241 226.062 81.7423C225.878 81.7714 225.721 81.8154 225.566 81.8154C225.04 81.8154 224.929 81.7176 224.773 81.2047C224.312 79.6909 223.85 78.178 223.384 76.6652C223.299 76.3878 223.194 76.1169 223.052 75.7126L223.046 75.7115Z" fill="white"/>
<path d="M279.203 78.4804C279.214 78.2438 279.232 78.0073 279.232 77.7707C279.235 76.4031 279.23 75.0354 279.235 73.6678C279.237 72.8528 279.27 72.8259 280.117 72.8216C281.121 72.8162 281.13 72.8216 281.131 73.7828C281.133 76.1429 281.131 78.5029 281.131 80.8619C281.131 81.0232 281.135 81.1845 281.125 81.3447C281.106 81.663 280.989 81.8006 280.688 81.8103C280.231 81.8242 279.771 81.8135 279.315 81.8135C279.008 81.5081 278.785 81.1748 278.547 80.8533C278.308 80.5297 278.068 80.205 277.831 79.8792C277.577 79.5319 277.326 79.1835 277.074 78.8341C276.839 78.5072 276.607 78.1772 276.371 77.8514C276.134 77.5256 275.895 77.2009 275.653 76.8783C275.42 76.5676 275.236 76.2224 274.95 75.7558C274.95 77.631 274.953 79.3158 274.948 80.9996C274.946 81.7941 274.924 81.8124 274.133 81.8189C273.916 81.821 273.7 81.8253 273.484 81.8124C273.173 81.7941 273.071 81.6802 273.05 81.349C273.042 81.2157 273.046 81.0813 273.046 80.9469C273.046 78.533 273.046 76.1203 273.046 73.7065C273.046 73.5721 273.043 73.4377 273.051 73.3043C273.074 72.9474 273.182 72.8409 273.56 72.827C273.884 72.8151 274.209 72.8345 274.533 72.8194C274.867 72.8044 275.105 72.9495 275.287 73.2076C275.505 73.514 275.713 73.828 275.934 74.1322C276.832 75.372 277.738 76.6074 278.634 77.8481C278.787 78.06 278.913 78.2911 279.051 78.5137C279.101 78.5029 279.152 78.4922 279.202 78.4814L279.203 78.4804Z" fill="white"/>
<path d="M244.42 78.6499C244.43 78.3628 244.446 78.0983 244.447 77.8338C244.449 76.4392 244.445 75.0447 244.449 73.6502C244.452 72.8653 244.489 72.8319 245.269 72.8233C245.538 72.8201 245.807 72.8233 246.108 72.8233C246.159 73.0072 246.233 73.1534 246.235 73.3007C246.247 74.105 246.242 74.9103 246.242 75.7146C246.242 77.4575 246.246 79.2014 246.239 80.9443C246.239 81.2045 246.306 81.4798 246.111 81.7744C245.583 81.8561 245.027 81.8421 244.422 81.7615C243.063 79.8906 241.695 78.008 240.322 76.1199C240.108 76.2887 240.186 76.4876 240.185 76.6586C240.178 77.9994 240.182 79.3412 240.182 80.682C240.182 80.8702 240.187 81.0572 240.179 81.2454C240.162 81.7142 240.074 81.8056 239.598 81.8174C239.274 81.826 238.949 81.8196 238.625 81.8013C238.408 81.7884 238.29 81.655 238.27 81.4336C238.256 81.2734 238.257 81.1121 238.257 80.9519C238.257 78.538 238.257 76.1242 238.257 73.7104C238.257 73.576 238.254 73.4416 238.263 73.3083C238.285 72.99 238.402 72.8653 238.698 72.833C238.725 72.8298 238.752 72.8298 238.779 72.8287C240.121 72.7341 240.134 72.7244 240.933 73.7996C241.686 74.8135 242.404 75.8522 243.145 76.8747C243.54 77.4188 243.957 77.9467 244.261 78.5499C244.279 78.5864 244.341 78.6026 244.421 78.652L244.42 78.6499Z" fill="white"/>
<path d="M213.241 77.398C213.332 78.2173 213.087 78.9807 212.714 79.7054C212.403 80.3086 211.938 80.7871 211.379 81.1849C210.147 82.0612 208.789 82.2891 207.383 81.7956C205.59 81.1666 204.329 79.6215 204.277 77.5077C204.251 76.4346 204.468 75.425 205.131 74.553C206.168 73.1854 207.549 72.4994 209.28 72.6811C210.145 72.7725 210.963 73.0875 211.616 73.7036C212.027 74.0907 212.435 74.4778 212.71 74.9863C213.118 75.7401 213.315 76.5314 213.24 77.398H213.241ZM211.301 77.4561C211.354 76.4045 210.973 75.6304 210.468 75.1444C209.302 74.0208 207.47 74.2595 206.673 75.6734C206.025 76.8228 206.063 77.9776 206.733 79.1044C207.077 79.685 207.606 80.0688 208.27 80.1925C209.575 80.4376 210.608 79.7161 211.043 78.7313C211.228 78.3109 211.34 77.87 211.301 77.4561Z" fill="white"/>
<path d="M169.407 81.8169C169.362 81.619 169.325 81.519 169.319 81.4169C169.257 80.3019 169.307 73.4991 169.383 72.926C169.517 72.8948 169.668 72.8292 169.818 72.8282C170.684 72.826 171.552 72.812 172.417 72.854C173.287 72.897 174.125 73.0819 174.883 73.5582C175.356 73.855 175.71 74.2442 175.991 74.7098C176.43 75.4377 176.668 76.2237 176.677 77.0763C176.685 77.8031 176.659 78.5214 176.379 79.2116C176.015 80.1116 175.467 80.8502 174.589 81.319C174.029 81.6179 173.411 81.7448 172.795 81.7889C171.691 81.8674 170.581 81.8158 169.406 81.8169H169.407ZM171.193 79.9051C171.231 79.9406 171.266 80.003 171.309 80.0094C172.151 80.1352 172.98 80.1234 173.749 79.703C173.909 79.6159 174.044 79.474 174.169 79.3364C174.257 79.2385 174.303 79.1052 174.374 78.9912C174.731 78.4117 174.715 77.7676 174.713 77.1225C174.711 76.6312 174.603 76.1699 174.401 75.7226C174.227 75.3388 173.957 75.071 173.57 74.8872C172.963 74.599 172.324 74.5614 171.672 74.5732C171.519 74.5764 171.369 74.6248 171.235 74.6485C171.129 75.2764 171.106 78.9837 171.194 79.903L171.193 79.9051Z" fill="white"/>
<path d="M149.963 78.1296C149.583 78.1231 149.288 78.1145 148.994 78.1134C148.317 78.1124 147.641 78.107 146.964 78.1188C146.601 78.1242 146.483 78.2435 146.468 78.6059C146.454 78.9543 146.461 79.3026 146.461 79.651C146.461 80.1875 146.466 80.724 146.458 81.2595C146.456 81.4132 146.419 81.567 146.393 81.753C145.834 81.8605 145.305 81.8347 144.732 81.7734C144.697 81.6423 144.635 81.5197 144.635 81.3971C144.629 78.6887 144.63 75.9802 144.633 73.2718C144.633 73.1675 144.664 73.0632 144.685 72.931C145.239 72.7331 145.789 72.8234 146.383 72.8708C146.413 73.0557 146.456 73.2073 146.458 73.36C146.466 74.0836 146.461 74.8083 146.464 75.5319C146.464 75.6921 146.466 75.8544 146.483 76.0136C146.507 76.2297 146.628 76.3512 146.862 76.3533C147.862 76.3609 148.861 76.3566 149.897 76.3566C149.941 76.1802 150.008 76.0329 150.012 75.8845C150.023 75.2147 150.018 74.5438 150.018 73.8739C150.018 73.6858 150.013 73.4976 150.023 73.3105C150.044 72.9471 150.149 72.8407 150.524 72.8267C150.848 72.8148 151.174 72.8148 151.498 72.8299C151.798 72.8439 151.918 72.9783 151.94 73.2933C151.95 73.4266 151.946 73.561 151.946 73.6954C151.946 76.1093 151.946 78.522 151.946 80.9358C151.946 81.0971 151.949 81.2584 151.936 81.4175C151.914 81.6788 151.795 81.8003 151.516 81.8089C151.138 81.8207 150.758 81.8175 150.381 81.8014C150.162 81.7928 150.051 81.6638 150.032 81.4337C150.018 81.2466 150.019 81.0584 150.019 80.8713C150.018 80.2015 150.022 79.5306 150.017 78.8607C150.015 78.651 149.989 78.4425 149.966 78.1306L149.963 78.1296Z" fill="white"/>
<path d="M135.26 81.7453C134.492 81.8636 133.852 81.8227 133.181 81.7872C132.407 80.6507 131.92 79.3648 131.21 78.2133C131.053 78.2133 131.014 78.3089 131.014 78.4197C131.009 79.2497 131.012 80.0798 131.002 80.9099C130.999 81.1733 131.056 81.4453 130.91 81.7367C130.406 81.8894 129.87 81.8335 129.341 81.7722C129.246 81.7614 129.127 81.6087 129.092 81.498C129.044 81.3507 129.062 81.1808 129.062 81.0206C129.061 78.5562 129.062 76.093 129.062 73.6286C129.062 73.5211 129.058 73.4136 129.067 73.3071C129.092 72.9609 129.211 72.8308 129.579 72.8276C130.444 72.8211 131.309 72.8222 132.173 72.8469C132.465 72.8555 132.761 72.9243 133.048 72.9964C134.131 73.2684 134.815 74.0716 134.872 75.1758C134.928 76.2564 134.54 77.1133 133.512 77.609C133.394 77.666 133.286 77.7412 133.168 77.8111C133.256 78.3348 133.619 78.6842 133.83 79.1078C134.046 79.5401 134.268 79.9701 134.523 80.3798C134.777 80.7884 134.996 81.2098 135.261 81.7431L135.26 81.7453ZM131.012 74.5178C131.012 75.1231 131.003 75.6801 131.015 76.237C131.02 76.5005 131.165 76.6241 131.417 76.6424C131.804 76.6714 132.163 76.5596 132.509 76.4091C132.602 76.3682 132.69 76.2908 132.754 76.2091C133.216 75.6156 132.875 74.6339 132.14 74.4791C131.804 74.4081 131.453 74.3748 131.01 74.5189L131.012 74.5178Z" fill="white"/>
<path d="M97.7222 77.8343C98.4528 79.1149 99.1563 80.3471 99.8826 81.619C99.798 81.6803 99.7233 81.7782 99.6409 81.7868C99.049 81.8481 98.4571 81.8212 97.8696 81.7986C97.0132 80.6804 96.6349 79.3289 95.7417 78.1289C95.7265 78.4956 95.7102 78.7332 95.7091 78.9698C95.7048 79.7482 95.7135 80.5266 95.7026 81.304C95.6972 81.6825 95.5845 81.7986 95.2278 81.8104C94.8766 81.8223 94.5232 81.819 94.172 81.8018C93.9118 81.7889 93.7937 81.6556 93.7742 81.3868C93.7623 81.2266 93.7666 81.0653 93.7666 80.904C93.7666 78.516 93.7644 76.1269 93.7666 73.7389C93.7666 72.8475 93.7904 72.8271 94.662 72.8217C95.2311 72.8185 95.7991 72.8217 96.3682 72.8217C96.9146 72.8217 97.4371 72.9422 97.9617 73.0895C98.8224 73.3314 99.2745 73.927 99.4241 74.7464C99.5249 75.2969 99.5325 75.8613 99.2951 76.4065C99.0349 77.0032 98.6566 77.4569 98.0181 77.6677C97.9433 77.6924 97.8783 77.744 97.7232 77.8322L97.7222 77.8343ZM95.7753 74.4442C95.6604 75.113 95.7081 75.6947 95.7243 76.2721C95.7308 76.5097 95.9054 76.6559 96.1579 76.6366C96.3964 76.6194 96.6349 76.5742 96.8669 76.5161C97.4598 76.3699 97.72 75.8882 97.5758 75.313C97.4392 74.7722 97.088 74.5077 96.5601 74.4475C96.326 74.4206 96.0853 74.4431 95.7753 74.4431V74.4442Z" fill="white"/>
<path d="M158.577 76.8076C158.392 76.5248 158.225 76.3108 158.104 76.0743C157.725 75.3378 157.665 74.5916 158.093 73.8475C158.3 73.4873 158.584 73.2336 158.99 73.0809C159.593 72.8551 160.177 72.8229 160.816 72.9379C161.888 73.1314 162.843 74.3776 162.058 75.7539C161.856 76.1065 161.594 76.4108 161.26 76.6527C161.136 76.743 161.031 76.8592 160.884 76.9946C161.301 77.5204 161.618 78.0752 162.175 78.4634C162.655 78.1913 162.919 77.7387 163.32 77.3527C163.417 77.4107 163.541 77.4581 163.628 77.543C163.856 77.7666 164.069 78.0064 164.297 78.2494C164.13 78.8935 163.541 79.1838 163.201 79.7246C163.26 79.8579 163.31 80.0385 163.412 80.1826C163.629 80.4891 163.877 80.774 164.104 81.074C164.231 81.2438 164.342 81.4277 164.444 81.5804C164.396 81.7847 164.264 81.8073 164.125 81.8116C163.963 81.8169 163.798 81.7976 163.639 81.8202C162.992 81.9126 162.471 81.7266 162.093 81.1847C162.066 81.146 162.001 81.1342 161.923 81.0944C161.694 81.2503 161.448 81.4105 161.207 81.5804C160.3 82.2223 158.71 82.1578 157.783 81.4127C157.388 81.0955 157.115 80.6804 157.023 80.2052C156.798 79.0494 157.039 78.0225 158.041 77.2677C158.211 77.1398 158.365 76.9893 158.576 76.8065L158.577 76.8076ZM159.489 77.9688C159.088 78.186 158.868 78.4472 158.718 78.7687C158.456 79.3311 158.675 80.0525 159.179 80.3106C159.604 80.5278 160.403 80.402 160.773 80.06C160.898 79.945 160.927 79.7773 160.821 79.6246C160.425 79.0558 159.991 78.5161 159.489 77.9688ZM159.997 75.984C160.167 75.841 160.331 75.7109 160.486 75.5711C160.755 75.3292 160.788 75.0141 160.739 74.683C160.687 74.326 160.326 74.0572 159.983 74.1088C159.563 74.1722 159.212 74.6055 159.324 74.9668C159.443 75.3496 159.616 75.7141 159.996 75.984H159.997Z" fill="white"/>
<path d="M297.731 81.7537C297.095 81.8515 296.566 81.8375 295.997 81.7763C295.967 81.5849 295.925 81.4322 295.925 81.2795C295.921 78.6496 295.921 76.0196 295.925 73.3897C295.925 73.2349 295.963 73.08 295.989 72.8897C296.17 72.865 296.324 72.8263 296.48 72.8241C297.129 72.8177 297.781 72.7994 298.429 72.8284C298.887 72.8489 299.354 72.8876 299.793 73.0069C300.718 73.2585 301.352 73.7929 301.521 74.8111C301.604 75.3089 301.564 75.767 301.446 76.2336C301.3 76.8099 300.946 77.2357 300.424 77.5238C300.261 77.6142 300.098 77.7002 299.903 77.8055C300.094 78.5388 300.589 79.0926 300.902 79.7345C301.216 80.3807 301.638 80.9709 302 81.6494C301.856 81.7193 301.768 81.7967 301.678 81.7999C301.191 81.815 300.703 81.8117 300.217 81.8128C299.98 81.8128 299.806 81.7204 299.693 81.5032C299.258 80.6699 298.81 79.8441 298.383 79.0065C298.237 78.7216 298.068 78.4668 297.796 78.0722C297.713 79.399 297.794 80.5452 297.732 81.7515L297.731 81.7537ZM297.797 74.5014C297.781 74.7358 297.758 74.9197 297.756 75.1036C297.753 75.4777 297.756 75.853 297.764 76.2271C297.767 76.4089 297.87 76.5443 298.04 76.5798C298.538 76.682 298.996 76.554 299.422 76.296C299.466 76.2701 299.493 76.2164 299.522 76.1712C299.957 75.5164 299.595 74.6036 298.831 74.4692C298.518 74.4133 298.192 74.3853 297.797 74.5014Z" fill="white"/>
<path d="M119.807 81.7015C120.864 78.7716 121.889 75.9298 122.918 73.0881C122.944 73.0171 123.013 72.9601 123.08 72.8741C123.708 72.7763 124.35 72.816 124.975 72.8504C125.255 73.0558 125.332 73.3515 125.431 73.6224C126.264 75.9115 127.087 78.2039 127.915 80.4951C128.051 80.8693 128.196 81.2392 128.35 81.6445C128.222 81.7112 128.134 81.7951 128.043 81.7983C127.557 81.8155 127.071 81.8166 126.584 81.8123C126.343 81.8101 126.192 81.6886 126.109 81.4531C125.968 81.0489 125.8 80.6543 125.646 80.2543C125.572 80.0607 125.439 79.9371 125.228 79.9307C124.313 79.9027 123.399 79.9199 122.479 79.9178C122.313 80.321 122.147 80.6521 122.06 81.0188C122.017 81.1994 121.963 81.3854 121.872 81.5456C121.813 81.6499 121.684 81.7789 121.58 81.7843C121.023 81.8166 120.458 81.8993 119.806 81.7015H119.807ZM123.019 78.2447C123.725 78.2974 124.327 78.363 124.962 78.1931C124.938 78.006 124.942 77.8448 124.896 77.6996C124.631 76.861 124.354 76.0266 124.075 75.1922C124.068 75.1718 123.986 75.1761 123.904 75.1643C123.722 76.1803 123.244 77.1179 123.019 78.2437V78.2447Z" fill="white"/>
<path d="M183.134 74.2834C182.855 74.5501 182.613 74.5684 182.367 74.5684C181.88 74.5684 181.392 74.5684 180.905 74.5694C180.716 74.5694 180.526 74.5673 180.337 74.5813C180.109 74.5985 179.97 74.7146 179.954 74.9232C179.923 75.3189 179.889 75.7188 179.998 76.1468C180.172 76.1726 180.326 76.2113 180.481 76.2134C181.049 76.2209 181.617 76.2156 182.186 76.2177C182.375 76.2177 182.565 76.2177 182.753 76.2349C182.969 76.2543 183.109 76.3822 183.117 76.5951C183.13 76.9424 183.129 77.2919 183.108 77.6381C183.097 77.8112 182.969 77.9327 182.789 77.9509C182.575 77.9725 182.358 77.9735 182.141 77.9757C181.546 77.98 180.95 77.9735 180.356 77.9864C180.085 77.9918 179.953 78.1198 179.944 78.3843C179.93 78.8122 179.931 79.2423 179.947 79.6702C179.957 79.9218 180.101 80.0497 180.373 80.0562C180.941 80.0691 181.509 80.0616 182.078 80.0648C182.295 80.0659 182.512 80.0626 182.727 80.0788C182.949 80.096 183.102 80.2218 183.111 80.4218C183.129 80.769 183.128 81.1174 183.116 81.4658C183.109 81.6432 182.991 81.7625 182.812 81.7926C182.68 81.8152 182.543 81.8174 182.408 81.8174C181.163 81.8185 179.918 81.8185 178.673 81.8174C178.565 81.8174 178.457 81.8141 178.349 81.8012C178.138 81.7754 178.022 81.6518 178 81.426C177.987 81.2927 177.987 81.1583 177.987 81.0239C177.987 78.5563 177.987 76.0898 177.987 73.6222C177.987 73.4878 177.987 73.3534 178 73.2211C178.026 72.9717 178.159 72.8502 178.427 72.8287C178.562 72.8179 178.697 72.8212 178.833 72.8212C179.97 72.8212 181.106 72.8212 182.243 72.8212C182.379 72.8212 182.514 72.8169 182.649 72.8276C182.999 72.8534 183.117 72.9717 183.13 73.3394C183.142 73.6587 183.132 73.9792 183.132 74.2834H183.134Z" fill="white"/>
<path d="M236.576 72.9243C236.686 73.3608 236.639 73.7877 236.623 74.2124C236.617 74.3984 236.491 74.507 236.321 74.5393C236.163 74.5683 235.998 74.5683 235.836 74.5694C235.296 74.5726 234.754 74.5672 234.213 74.5726C234.027 74.5747 233.843 74.6005 233.631 74.6177C233.474 75.1328 233.522 75.6231 233.589 76.1628C234.582 76.3015 235.555 76.1456 236.55 76.265C236.705 76.8079 236.652 77.3283 236.588 77.8917C236.421 77.9229 236.268 77.9724 236.115 77.9745C235.547 77.9842 234.979 77.9788 234.41 77.9788C234.168 77.9788 233.926 77.9788 233.651 77.9788C233.607 78.1659 233.542 78.3143 233.541 78.4627C233.541 78.9648 233.494 79.4712 233.587 80.0077C234.584 80.155 235.559 79.9798 236.551 80.1206C236.702 80.6614 236.657 81.1818 236.584 81.7399C236.441 81.7689 236.313 81.8162 236.187 81.8162C234.861 81.8216 233.535 81.8205 232.208 81.8194C232.127 81.8194 232.046 81.8151 231.965 81.8044C231.754 81.7764 231.639 81.6549 231.617 81.4281C231.604 81.2947 231.604 81.1603 231.604 81.027C231.604 78.5594 231.604 76.0929 231.604 73.6253C231.604 73.4909 231.604 73.3565 231.619 73.2243C231.645 72.9738 231.776 72.834 232.045 72.834C233.505 72.8361 234.965 72.849 236.425 72.8609C236.449 72.8609 236.473 72.8813 236.576 72.9265V72.9243Z" fill="white"/>
<path d="M294.092 80.1037C294.221 80.6811 294.193 81.1811 294.129 81.7154C293.998 81.7509 293.873 81.8122 293.747 81.8133C292.393 81.8208 291.039 81.8187 289.685 81.8187C289.604 81.8187 289.522 81.8154 289.444 81.7982C289.301 81.766 289.198 81.6714 289.175 81.5305C289.149 81.3725 289.147 81.2101 289.147 81.0499C289.146 78.5812 289.146 76.1115 289.146 73.6428C289.146 73.5891 289.146 73.5353 289.146 73.4815C289.163 72.9031 289.226 72.8289 289.806 72.8257C291.105 72.8192 292.405 72.8235 293.705 72.8257C293.811 72.8257 293.916 72.8536 293.995 72.8644C294.223 73.0439 294.17 73.2708 294.174 73.4794C294.188 74.2048 293.84 74.5686 293.131 74.5707C292.644 74.5707 292.157 74.5664 291.669 74.574C291.511 74.5761 291.354 74.6073 291.225 74.6213C291.009 74.8567 291.084 75.1094 291.074 75.3427C291.063 75.5814 291.072 75.8223 291.072 76.0943C291.26 76.1416 291.408 76.2093 291.559 76.2126C292.181 76.2255 292.804 76.2147 293.427 76.2212C293.638 76.2233 293.848 76.2513 294.092 76.2706C294.228 76.8254 294.206 77.3437 294.109 77.9092C293.932 77.935 293.779 77.9737 293.624 77.9759C293.028 77.9834 292.432 77.9759 291.836 77.9813C291.624 77.9834 291.411 78.006 291.165 78.021C290.997 78.6748 291.074 79.3038 291.115 79.9747C291.288 80.008 291.439 80.0596 291.592 80.0618C292.187 80.0715 292.783 80.0639 293.38 80.0682C293.593 80.0704 293.807 80.0887 294.092 80.1037Z" fill="white"/>
<path d="M119.069 72.8693C119.183 73.365 119.144 73.7671 119.13 74.1671C119.123 74.3864 118.992 74.5262 118.783 74.5455C118.542 74.5681 118.298 74.567 118.054 74.5703C117.434 74.5767 116.814 74.5789 116.16 74.5821C116.114 74.7649 116.048 74.9122 116.046 75.0606C116.041 75.4046 115.996 75.7541 116.107 76.1401C116.257 76.1659 116.41 76.2132 116.562 76.2153C117.13 76.225 117.699 76.2175 118.267 76.2207C118.456 76.2218 118.653 76.211 118.83 76.2616C118.939 76.2928 119.087 76.4175 119.101 76.5164C119.165 76.9637 119.193 77.4163 119.065 77.9034C118.901 77.9292 118.747 77.9722 118.594 77.9744C117.998 77.983 117.402 77.9754 116.807 77.9808C116.595 77.983 116.382 78.0023 116.136 78.0163C115.955 78.6668 116.047 79.2979 116.074 79.9678C116.244 80.0033 116.395 80.0592 116.547 80.0624C117.115 80.0732 117.684 80.0646 118.252 80.0689C118.494 80.0699 118.736 80.0828 119.012 80.0925C119.059 80.2602 119.132 80.4065 119.133 80.5538C119.137 80.9258 119.187 81.3032 119.085 81.7107C118.971 81.744 118.847 81.8118 118.725 81.8128C117.372 81.8214 116.018 81.8193 114.665 81.8193C114.584 81.8193 114.502 81.8139 114.423 81.7989C114.246 81.7634 114.133 81.6516 114.115 81.4741C114.097 81.2881 114.096 81.1 114.096 80.9118C114.095 78.5249 114.094 76.1379 114.096 73.7499C114.096 72.8327 114.106 72.8263 115.063 72.8241C116.146 72.822 117.229 72.8209 118.311 72.8252C118.549 72.8252 118.787 72.8532 119.068 72.8704L119.069 72.8693Z" fill="white"/>
<path d="M268.361 78.0402C268.315 78.7444 268.283 79.3519 268.384 80.0002C268.568 80.025 268.722 80.0615 268.877 80.0637C269.499 80.0712 270.121 80.0637 270.743 80.0691C270.928 80.0712 271.111 80.1013 271.328 80.1217C271.495 80.6647 271.449 81.183 271.364 81.7399C271.192 81.7679 271.037 81.8152 270.883 81.8152C269.612 81.8216 268.34 81.8195 267.068 81.8173C266.934 81.8173 266.797 81.8098 266.666 81.7829C266.524 81.7539 266.427 81.6507 266.406 81.5088C266.384 81.3507 266.382 81.1883 266.382 81.0281C266.381 78.5616 266.382 76.0962 266.382 73.6297C266.382 73.5222 266.38 73.4146 266.387 73.3082C266.41 72.9545 266.521 72.8308 266.896 72.8287C268.302 72.8222 269.709 72.8297 271.116 72.8351C271.167 72.8351 271.218 72.8674 271.27 72.8846C271.475 73.0405 271.424 73.2684 271.428 73.4759C271.45 74.5597 271.442 74.5662 270.384 74.5683C269.871 74.5694 269.357 74.5651 268.843 74.5716C268.712 74.5726 268.582 74.6038 268.427 74.6242C268.259 75.107 268.331 75.5822 268.362 76.0973C268.512 76.1371 268.66 76.2069 268.808 76.2102C269.403 76.2241 269.999 76.2155 270.594 76.2177C270.729 76.2177 270.865 76.2177 270.999 76.2295C271.265 76.2553 271.397 76.3779 271.419 76.6316C271.435 76.8177 271.434 77.0069 271.429 77.194C271.425 77.4058 271.408 77.6176 271.394 77.8627C271.222 77.9036 271.073 77.967 270.921 77.9703C270.272 77.9821 269.622 77.9724 268.973 77.9789C268.791 77.981 268.608 78.0133 268.363 78.038L268.361 78.0402Z" fill="white"/>
<path d="M192.651 72.8909C192.81 72.8651 192.938 72.8264 193.067 72.8264C194.365 72.821 195.664 72.8221 196.964 72.8231C197.071 72.8231 197.181 72.8274 197.287 72.8457C197.462 72.878 197.593 72.9877 197.603 73.1629C197.622 73.5102 197.622 73.8586 197.607 74.2059C197.599 74.4069 197.452 74.5435 197.227 74.5499C196.659 74.5671 196.091 74.5574 195.523 74.5714C195.23 74.5789 194.929 74.5123 194.654 74.6435C194.461 74.8585 194.54 75.1112 194.527 75.3445C194.515 75.5832 194.523 75.823 194.523 76.0939C194.715 76.1412 194.864 76.2079 195.014 76.2111C195.583 76.224 196.151 76.2154 196.72 76.2186C196.908 76.2186 197.099 76.2186 197.287 76.2434C197.463 76.2659 197.587 76.3842 197.602 76.5605C197.638 76.9852 197.666 77.4121 197.564 77.8755C197.415 77.9088 197.264 77.9669 197.112 77.9701C196.571 77.982 196.03 77.9755 195.488 77.9766C195.219 77.9766 194.951 77.9766 194.657 77.9766C194.606 78.1357 194.536 78.2561 194.532 78.3787C194.518 78.8077 194.523 79.2367 194.531 79.6657C194.533 79.7668 194.574 79.8668 194.607 80.0055C194.778 80.027 194.933 80.0603 195.088 80.0625C195.656 80.0689 196.224 80.0636 196.793 80.0668C196.955 80.0668 197.119 80.0689 197.279 80.0915C197.456 80.1162 197.565 80.2334 197.602 80.4065C197.618 80.485 197.625 80.5657 197.625 80.6463C197.63 81.8161 197.72 81.8312 196.51 81.8215C195.456 81.8129 194.4 81.8215 193.344 81.8183C193.106 81.8183 192.851 81.8613 192.659 81.6559C192.553 81.0388 192.5 75.394 192.583 73.3027C192.588 73.1747 192.623 73.0489 192.649 72.892L192.651 72.8909Z" fill="white"/>
<path d="M102.908 74.6252C102.822 75.1811 102.81 75.6499 102.91 76.1595C103.156 76.181 103.365 76.2133 103.575 76.2154C104.197 76.224 104.818 76.2111 105.44 76.2251C105.809 76.2326 105.924 76.353 105.941 76.7132C105.954 76.9809 105.954 77.2498 105.939 77.5164C105.922 77.8228 105.79 77.9583 105.485 77.968C105.052 77.983 104.62 77.9755 104.187 77.9766C103.863 77.9777 103.538 77.9701 103.214 77.9841C103.087 77.9895 102.963 78.0454 102.82 78.083C102.835 78.6744 102.847 79.2324 102.866 79.7915C102.867 79.841 102.905 79.8883 102.946 79.9829C103.072 80.0066 103.224 80.0571 103.378 80.0603C103.974 80.07 104.568 80.0625 105.163 80.0668C105.324 80.0668 105.498 80.0539 105.643 80.1066C105.752 80.1463 105.898 80.2732 105.906 80.3732C105.94 80.7442 105.937 81.1205 105.922 81.4936C105.914 81.6721 105.775 81.7753 105.597 81.7989C105.464 81.8161 105.327 81.8183 105.193 81.8183C103.977 81.8194 102.759 81.8215 101.543 81.8161C101.36 81.8161 101.178 81.7774 101.005 81.7581C100.963 81.6441 100.913 81.571 100.913 81.4989C100.91 78.7131 100.91 75.9262 100.916 73.1403C100.916 73.0683 100.97 72.9962 101.014 72.8834C101.132 72.8651 101.26 72.8264 101.389 72.8264C102.687 72.821 103.984 72.8221 105.283 72.8231C105.39 72.8231 105.5 72.8274 105.606 72.8468C105.782 72.878 105.915 72.9855 105.924 73.1618C105.942 73.5091 105.943 73.8575 105.929 74.2048C105.922 74.408 105.775 74.5327 105.553 74.5531C105.365 74.5703 105.175 74.5682 104.986 74.5693C104.499 74.5714 104.013 74.565 103.526 74.5725C103.342 74.5746 103.157 74.6037 102.911 74.6263L102.908 74.6252Z" fill="white"/>
<path d="M183.855 72.9563C184.096 72.7595 184.35 72.8348 184.586 72.823C184.802 72.8122 185.019 72.8165 185.235 72.823C185.773 72.8359 185.894 72.9176 186.045 73.4218C186.336 74.3971 186.615 75.3744 186.898 76.3518C187.18 77.3259 187.46 78.3022 187.761 79.3484C187.82 79.229 187.855 79.1753 187.873 79.1172C188.459 77.1689 189.048 75.2217 189.624 73.2702C189.715 72.9627 189.887 72.8219 190.2 72.824C190.579 72.8273 190.958 72.8165 191.335 72.8348C191.456 72.8402 191.573 72.9165 191.712 72.9681C191.683 73.1122 191.672 73.2165 191.64 73.3132C191.286 74.354 190.934 75.3938 190.574 76.4324C190.275 77.2926 189.966 78.1495 189.66 79.0086C189.382 79.7913 189.106 80.5741 188.824 81.3547C188.676 81.7633 188.613 81.817 188.177 81.8149C186.631 81.8063 186.951 81.9944 186.486 80.6752C185.614 78.199 184.747 75.7217 183.883 73.2434C183.85 73.1498 183.863 73.0401 183.857 72.9574L183.855 72.9563Z" fill="white"/>
<path d="M264.689 75.199C264.2 74.7839 263.691 74.4893 263.103 74.3452C261.659 73.9904 259.977 74.8624 259.677 76.4903C259.524 77.3193 259.58 78.0988 259.893 78.8493C260.213 79.6159 260.843 80.0847 261.671 80.2126C262.093 80.2782 262.536 80.2481 262.967 80.2137C263.347 80.1836 263.694 80.0245 264.013 79.8073C264.228 79.661 264.46 79.5385 264.7 79.3965C264.771 79.5019 264.847 79.5643 264.849 79.6277C264.866 80.0556 264.869 80.4846 264.871 80.9136C264.871 81.148 264.761 81.3255 264.556 81.4394C263.983 81.7555 263.394 82.0157 262.718 82.0061C262.42 82.0018 262.123 81.9996 261.825 82.0061C260.945 82.0233 260.177 81.6803 259.492 81.1932C258.706 80.633 258.182 79.861 257.878 78.9353C257.386 77.4365 257.581 76.0183 258.369 74.6818C258.83 73.9001 259.506 73.3195 260.373 72.9948C261.751 72.4776 263.12 72.5142 264.48 73.0883C264.767 73.2098 264.915 73.3872 264.903 73.6958C264.887 74.0979 264.884 74.5001 264.856 74.9011C264.849 74.9914 264.761 75.0764 264.689 75.199Z" fill="white"/>
<path d="M142.891 79.4218C142.956 79.5648 143.013 79.6336 143.015 79.7035C143.026 80.1325 143.026 80.5615 143.028 80.9905C143.028 81.226 142.924 81.4002 142.709 81.5088C142.151 81.7905 141.582 82.0335 140.934 82.0087C140.317 81.9851 139.695 82.0625 139.085 81.8539C137.385 81.2712 136.313 80.168 135.983 78.3778C135.808 77.4316 135.848 76.5198 136.145 75.6048C136.35 74.9748 136.7 74.4243 137.14 73.9641C137.641 73.4405 138.275 73.0534 138.994 72.8523C140.323 72.4792 141.614 72.6029 142.869 73.1598C143.032 73.2319 143.145 73.3501 143.145 73.5233C143.145 74.0049 143.127 74.4856 143.11 74.9672C143.108 75.0124 143.056 75.0554 143.024 75.1027C142.873 75.1844 142.781 75.0629 142.67 74.9974C142.324 74.7909 142.002 74.5587 141.609 74.42C140.25 73.9447 138.775 74.5931 138.199 75.7134C137.818 76.4564 137.736 77.2445 137.883 78.0509C137.954 78.4412 138.057 78.8294 138.295 79.1745C138.751 79.839 139.349 80.2357 140.177 80.2443C140.421 80.2465 140.663 80.2454 140.907 80.2422C141.378 80.2347 141.812 80.1099 142.206 79.8476C142.405 79.7143 142.614 79.5938 142.889 79.4229L142.891 79.4218Z" fill="white"/>
<path d="M216.694 78.5026C216.675 78.7692 216.648 78.9778 216.645 79.1864C216.64 79.8014 216.644 80.4175 216.643 81.0325C216.643 81.1658 216.643 81.3002 216.629 81.4336C216.608 81.655 216.492 81.7916 216.274 81.7981C215.791 81.812 215.309 81.8024 214.793 81.8024C214.752 81.6464 214.691 81.5239 214.691 81.4002C214.687 78.6703 214.689 75.9414 214.691 73.2115C214.691 73.133 214.718 73.0545 214.734 72.9631C214.797 72.9255 214.863 72.8524 214.932 72.8502C215.955 72.8147 216.984 72.7362 217.994 72.9706C218.331 73.0491 218.678 73.1577 218.971 73.333C219.464 73.6287 219.821 74.0394 219.951 74.6415C220.095 75.3103 220.118 75.9565 219.934 76.6177C219.697 77.4757 219.102 77.98 218.291 78.2445C217.913 78.3682 217.516 78.48 217.101 78.4499C216.997 78.4423 216.889 78.4757 216.694 78.5026ZM216.738 74.4867C216.608 75.1985 216.612 76.1393 216.745 76.7919C217.191 76.893 217.586 76.7951 217.88 76.4263C218.158 76.078 218.203 75.2264 217.979 74.8899C217.688 74.4523 217.281 74.3276 216.737 74.4878L216.738 74.4867Z" fill="white"/>
<path d="M108.032 79.4074C108.252 79.6558 108.395 79.8472 108.567 80.0074C109.065 80.4708 109.888 80.5385 110.446 80.1762C110.907 79.8762 111.005 79.2752 110.658 78.8462C110.417 78.5484 110.113 78.3312 109.766 78.1667C109.253 77.9226 108.77 77.6323 108.314 77.2936C107.785 76.899 107.364 76.4388 107.194 75.7722C106.95 74.8195 107.359 73.6917 108.19 73.168C109.008 72.653 109.917 72.5337 110.841 72.7079C111.513 72.8347 112.089 73.1852 112.465 73.8572C112.128 74.2131 111.801 74.5572 111.443 74.9346C111.314 74.8357 111.198 74.7744 111.12 74.6809C110.739 74.226 110.235 74.1863 109.714 74.2927C109.064 74.426 108.823 75.1733 109.245 75.6776C109.509 75.9937 109.848 76.2087 110.221 76.3775C110.788 76.6334 111.325 76.9345 111.815 77.3248C112.427 77.8118 112.742 78.4677 112.762 79.2042C112.802 80.7031 111.81 81.9438 110.163 82.0051C109.571 82.0266 108.977 82.0471 108.402 81.8256C108.066 81.6965 107.75 81.5299 107.517 81.2772C107.068 80.7901 106.889 80.6428 107.458 80.0848C107.647 79.8999 107.803 79.6805 108.03 79.4085L108.032 79.4074Z" fill="white"/>
<path d="M251.138 81.7745C250.641 81.8508 250.112 81.8422 249.62 81.7788C249.38 81.5831 249.442 81.3541 249.441 81.1487C249.437 79.3252 249.433 77.5016 249.441 75.6781C249.447 74.4996 249.422 74.5652 248.336 74.5685C248.12 74.5685 247.902 74.5685 247.687 74.5437C247.514 74.5233 247.382 74.4158 247.37 74.2319C247.344 73.8061 247.311 73.3793 247.408 72.9191C247.532 72.8879 247.657 72.8288 247.783 72.8277C249.434 72.8213 251.085 72.8223 252.735 72.8223C252.816 72.8223 252.897 72.8277 252.977 72.8385C253.191 72.8675 253.312 72.9922 253.343 73.204C253.346 73.2309 253.352 73.2567 253.352 73.2836C253.362 74.5588 253.486 74.59 252.185 74.5685C252.022 74.5663 251.86 74.5652 251.698 74.5781C251.443 74.5996 251.318 74.7265 251.296 74.9942C251.28 75.2071 251.283 75.4232 251.283 75.6372C251.283 77.407 251.285 79.1768 251.28 80.9466C251.28 81.2057 251.354 81.4831 251.139 81.7723L251.138 81.7745Z" fill="white"/>
<path d="M286.1 74.5827C286.084 74.9494 286.064 75.2117 286.064 75.4741C286.06 77.2955 286.065 79.1169 286.059 80.9383C286.059 81.1995 286.124 81.4737 285.939 81.7651C285.437 81.8629 284.908 81.8339 284.403 81.7823C284.157 81.5672 284.233 81.3113 284.232 81.0802C284.226 79.2588 284.228 77.4374 284.228 75.616C284.228 75.3235 284.228 75.03 284.228 74.7042C284.044 74.6526 283.898 74.5838 283.748 74.5763C283.371 74.5569 282.991 74.5763 282.613 74.5602C282.268 74.5451 282.142 74.4096 282.131 74.0527C282.122 73.7591 282.129 73.4634 282.149 73.1699C282.161 72.9925 282.286 72.8764 282.46 72.8484C282.62 72.8226 282.783 72.8226 282.945 72.8216C284.404 72.8194 285.864 72.8205 287.323 72.8216C287.459 72.8216 287.594 72.8216 287.727 72.8334C287.958 72.8538 288.1 72.9656 288.109 73.1731C288.125 73.5204 288.125 73.8688 288.11 74.2161C288.101 74.4215 287.961 74.5408 287.73 74.5558C287.488 74.572 287.244 74.5666 287 74.5698C286.732 74.5741 286.466 74.5774 286.098 74.5827H286.1Z" fill="white"/>
<path d="M199.305 72.8314C199.854 72.8314 200.31 72.8217 200.765 72.8357C201.023 72.8432 201.146 72.9808 201.165 73.2496C201.18 73.4625 201.176 73.6776 201.176 73.8915C201.176 75.6581 201.174 77.4247 201.179 79.1912C201.179 79.4514 201.111 79.7267 201.306 80.0094C201.701 80.1191 202.133 80.0481 202.558 80.0643C202.985 80.0804 203.417 80.0363 203.871 80.1062C204.051 80.6513 203.981 81.1717 203.927 81.7276C203.788 81.7599 203.662 81.8136 203.535 81.8136C202.238 81.819 200.942 81.8168 199.646 81.8136C199.566 81.8136 199.486 81.791 199.416 81.7792C199.193 81.619 199.25 81.39 199.249 81.1836C199.244 79.5245 199.247 77.8644 199.247 76.2054C199.247 75.3226 199.243 74.4388 199.249 73.5561C199.25 73.3475 199.279 73.14 199.304 72.8314H199.305Z" fill="white"/>
<defs>
<linearGradient id="paint0_linear_436_45572" x1="6.31331" y1="64.5293" x2="64.8108" y2="23.2326" gradientUnits="userSpaceOnUse">
<stop offset="0.01" stop-color="#1A75AB"/>
<stop offset="0.31" stop-color="#1879A8"/>
<stop offset="0.6" stop-color="#14859F"/>
<stop offset="0.9" stop-color="#0E9992"/>
<stop offset="0.96" stop-color="#0D9E8F"/>
</linearGradient>
</defs>
</svg>
